# xmcd
#
# Track frame offsets:
#	150
#	18069
#	32206
#	47124
#	59149
#	74885
#	90850
#	106512
#	122582
#	136073
#	150134
#	164217
#	182400
#
# Disc length: 2628 seconds
#
# Revision: 3
# Processed by: cddbd v1.5.2PL0 Copyright (c) Steve Scherf et al.
# Submitted via: audiograbber 1.83.01
#
DISCID=a20a420d
DTITLE=Keren Peles - Im Ele HaCHaim
DYEAR=2006
DGENRE=Pop
TTITLE0=Zot SheBimkomi
TTITLE1=Zmanim Meshugaim
TTITLE2=Rakevet BeEropa
TTITLE3=Itay
TTITLE4=Shochachat Otcha
TTITLE5=Shimon HaShachen
TTITLE6=Al Sfat HaKineret (BeSandalim)
TTITLE7=SheYihiye Lanu Bayt
TTITLE8=Od Yom
TTITLE9=LaRutz LaRutz
TTITLE10=Yoter Miday
TTITLE11=Eviatar
TTITLE12=Im Ele HaChaim
EXTD=
EXTT0=
EXTT1=
EXTT2=
EXTT3=
EXTT4=
EXTT5=
EXTT6=
EXTT7=
EXTT8=
EXTT9=
EXTT10=
EXTT11=
EXTT12=
PLAYORDER=
